<svg width="121" height="121" viewBox="0 0 121 121" fill="none" xmlns="http://www.w3.org/2000/svg">
<path d="M60.4997 0C26.9964 0 0 27.135 0 60.5C0 94.0034 27.1349 121 60.4997 121C93.8646 121 120.999 93.865 120.999 60.5C121.138 26.9966 94.003 0 60.4997 0ZM89.5728 62.5767C93.4492 64.5149 96.495 67.1453 97.6026 71.4371C99.5408 78.3593 97.8794 87.0812 87.7731 91.0961C83.8967 92.619 79.7434 93.5881 75.5901 93.7265C68.9448 94.0034 62.2995 94.0034 55.5158 94.1419H55.1005V79.3284H78.3589V67.976H55.1005V52.6087H80.7125V40.5641H41.2561V94.0034H26.1658V26.7197H68.9448C75.3132 26.7197 81.5431 27.4119 87.4962 29.7654C90.2651 30.873 92.6186 32.3959 94.5568 34.611C99.1254 39.7334 100.095 49.5629 92.0648 55.7929C89.7113 57.5927 87.0809 58.8387 84.312 59.8078C84.1735 59.8078 84.0351 59.9462 83.7582 59.9462L83.6198 60.0847C85.8349 60.9153 87.7731 61.6076 89.5728 62.5767V62.5767Z" fill="#5C2D90"/>
</svg>
